# xmcd
# 
# Track frame offsets:
#     150
#     14042
#     30018
#     48160
#     71427
#     92371
#     108353
#     123165
#     144771
#     155974
#     187816
#     227302
#     251657
#     267931
#     283936
#     298509
# 
# Disc length: 4172
# 
# Revision: 1
# Processed by: cddbd v1.5.2PL0 Copyright (c) Steve Scherf et al.
# Submitted via: BonkEnc v1.0.8
# 
DISCID=cf104a10
DTITLE=Various Artist - Radics Béla Emlékkoncert LIVE
DYEAR=0
DGENRE=
TTITLE0=Various Artist - Lazítás
TTITLE1=Various Artist - Same Old Story
TTITLE2=Various Artist - Kereszteslovag
TTITLE3=Various Artist - Sunshine Of Your Love
TTITLE4=Various Artist - Whole Lotta Love - Good Times Bad Times
TTITLE5=Various Artist - Menj tovább
TTITLE6=Various Artist - Utolsó cigaretta
TTITLE7=Various Artist - A zöld a bíbor és a fekete
TTITLE8=Various Artist - Kopaszkutya
TTITLE9=Various Artist - Red House
TTITLE10=Various Artist - Power Of Love
TTITLE11=Various Artist - Anyám vigasztalj engem
TTITLE12=Various Artist - Zöld csillag
TTITLE13=Various Artist - Csodálatos utazás
TTITLE14=Various Artist - Lángszívû lány
TTITLE15=Various Artist - Sirató
EXTD=
EXTT0=
EXTT1=
EXTT2=
EXTT3=
EXTT4=
EXTT5=
EXTT6=
EXTT7=
EXTT8=
EXTT9=
EXTT10=
EXTT11=
EXTT12=
EXTT13=
EXTT14=
EXTT15=
PLAYORDER=
